<svg width="999px" height="392px" version="1.1" viewBox="0 0 999 392" xmlns="http://www.w3.org/2000/svg"><g fill="#E73337"><path d="m189 345c-104-78.2-165-201-165-331 0-3.34 0-7.12.26-10.8h-24.4c0 3.71-.26 7.38-.26 10.8.12 137 64.6 267 174 350l14.8-19.2z"/><path d="m456 345c-5.55.23-11.1.5-16.9.5-182 0-330-149-330-331 0-3.34 0-7.12.26-10.8h-24.2c-.28 3.72-.28 7.4-.28 10.8.4 196 159 354 355 355 6.11 0 12.2 0 18-.26l-1.31-24.3z"/><path d="m323 369c-153-50.4-257-193-257-354 0-3.34 0-7.12.26-10.8h-24.3c0 3.71-.28 7.38-.28 10.8 0 176 115 325 274 377l7.65-22.9z"/><polygon points="817 198 849 198 849 170 817 170"/><path d="m849 317v5.53c.21 7.17-.14 14.3-1.03 21.4-.7 5.34-3.03 10.3-6.68 14.3-4.79 4.74-12.5 7.12-22.8 7.12h-5.64c-2.14-.21-4.26-.56-6.35-1.05v-24.1l1.87.27c3.06.78 6.21-.96 7.15-3.97.94-5.24 1.28-10.6 1.04-15.9v-111h32.5l-.14 107z"/><path d="m539 326v-155h32v76.7l25.7-38.1h32.5l-34.1 44.4 34.7 71.7h-32.6l-20.9-47.4-5.31 7.38v40h-32z"/><path d="m798 312c-.26-4.73-.54-11.1-.54-18.8v-44.7c.28-7.1-.26-14.2-1.6-21.2-1.78-5.76-5.52-10.7-10.6-14-4.13-2.49-8.65-4.26-13.4-5.29-5.92-1.23-12-1.84-18-1.82h-2.65c-27.8.76-41.6 13.7-41.6 38.9h32.6v-.8c0-8.45 2.91-13.4 9-14.3.85-.23 1.75-.31 2.65-.28 6.87 0 10 3.34 10 10.6 0 5.04-3.73 9.52-11.4 12.4-.54.28-.81.28-1.35.54-5.04 1.88-10.3 3.7-15.3 5.58-10.3 4.22-17.8 8.98-22.3 14.8-4.76 6.21-7.2 13.9-6.88 21.7-.48 8.64 2.38 17.2 7.95 23.8 5.51 6.11 13.5 9.43 21.7 9.03 5.1 0 10.2-.99 14.8-2.94 5.43-2.26 10.3-5.69 14.3-10l1.82 10.5h34.2c-2.12-4.29-3.33-8.97-3.55-13.8zm-34.4-29.1c.32 5.44-.68 10.9-2.91 15.9-2.05 3.11-5.51 5.01-9.23 5.04h-1.34c-2.91.14-5.71-1.02-7.65-3.16-2.01-2.51-2.98-5.67-2.74-8.86-.2-5.12 1.93-10 5.81-13.4 1.9-1.52 3.94-2.85 6.07-3.99 3.88-1.94 7.96-3.46 12.2-4.5l-.18 13z"/><path d="m642 326v-116h30.1v16.2c6.87-11.4 15.6-17.5 26.2-18.6v36.8c-3.22-.71-6.51-1.06-9.8-1.06-5.53 0-9.26 1.86-11.1 6.1-2.31 6.72-3.3 13.8-2.9 20.9v55.8l-32.4.01z"/><polygon points="277 31 310 31 310 2.93 277 2.93"/><path d="m387 40c-4.54-.11-9.03 1.04-13 3.34-4 2.42-7.38 5.78-9.78 9.8v-49.1h-32.5v155h30.1v-12.7c3.01 5.13 7.29 9.41 12.4 12.4 4.2 2.33 8.96 3.48 13.8 3.34 11.1.66 21.3-5.69 25.6-15.9 1.78-4.87 2.89-9.95 3.34-15.1.54-6.89.82-15.9.82-27 0-24.1-1.62-40.1-5.05-48.7-4.61-10.2-13.1-15.5-25.8-15.5zm-2.36 67.2c.38 7.55-.27 15.1-1.87 22.5-.73 3.72-4.12 6.35-7.92 6.07h-.81c-5.81-.54-9.24-6.07-10-16.4-.26-3.16-.52-11.9-.52-25.9-.28-6.75.43-13.5 2.1-20 1.22-3.61 4.66-5.99 8.47-5.85 5.81 0 9.26 4.78 10 13.8.27 2.91.54 10.3.54 22.8v3.13z"/><polygon points="995 .02 965 .02 945 28.6 959 28.6"/><path d="m220 3.99h-36.2v155h79.6v-31.5h-43.4v-124z"/><polygon points="277 159 310 159 310 42.6 277 42.6"/><path d="m512 52.4c-6.89-8.46-17.7-12.7-32.5-13h-.53c-15.3 0-26.7 3.96-33.8 11.9-4.77 5.22-7.84 11.8-8.76 18.8-1.48 10.5-2.09 21.1-1.82 31.7-.18 10.4.53 20.7 2.1 31 1.04 6.58 3.79 12.8 7.95 18 3.73 3.75 8.32 6.57 13.4 8.21 6.22 2.12 12.7 3.1 19.3 2.91h2.11c26.7-.53 40.1-14.3 40.1-40.8v-2.9h-30.2l.52 5.54c0 9.55-3.34 14.3-10.3 14.8h-.79c-3.83.41-7.54-1.59-9.26-5.05-1.95-5.41-2.75-11.2-2.37-16.9l.54-11.4h52.6v-14c.15-7.88-.39-15.8-1.61-23.5-.73-5.62-2.99-10.9-6.54-15.3zm-21.9 32.5h-22v-6.35c-.4-4.49.51-9 2.65-13 1.88-2.73 5.09-4.24 8.42-3.91h.26c7.41 0 11.1 5.58 11.1 16.7l-.49 6.53z"/><path d="m907 42.6h-32.6l-25.4 38.1v-76.8h-32v155h32v-40l5.3-7.41 20.9 47.4h32.6l-34.6-71.9 33.9-44.5z"/><path d="m967 42.6-11.4 74.9-11.4-74.9h-32.4l23 105c.5 3.18 1.58 7.14 2.64 12.2.23 1.58.31 3.17.26 4.75 0 5.55-3.34 8.49-10.9 8.49l-5.53-.54v24.3c4.42.73 8.88 1.19 13.4 1.32 13 0 22.2-3.7 28-11.1 4.51-5.81 8.98-18.5 13-37.6l23.4-107h-32.2z"/><path d="m686 52.4c-6.89-8.46-18-12.7-32.8-13h-.53c-15.3 0-26.7 3.96-33.9 11.9-4.77 5.24-7.81 11.8-8.72 18.8-1.51 10.5-2.14 21.1-1.88 31.7-.17 10.4.54 20.7 2.14 31 1.03 6.58 3.76 12.8 7.92 18 3.74 3.74 8.31 6.56 13.4 8.21 6.21 2.11 12.8 3.1 19.3 2.91h2.14c26.7-.53 40.1-14.3 40.1-40.8v-2.9h-30.1l.52 5.54c0 9.55-3.34 14.3-10.3 14.8h-.79c-3.92.54-7.73-1.5-9.46-5.05-1.98-5.4-2.79-11.2-2.42-16.9l.55-11.4h52.9v-14c.15-7.86-.37-15.8-1.56-23.5-.73-5.61-2.96-10.9-6.47-15.3zm-22.2 32.5h-21.9v-6.35c-.41-4.49.52-8.98 2.62-13 1.93-2.78 5.22-4.28 8.6-3.91h.26c7.37 0 11.1 5.58 11.1 16.7l-.62 6.53z"/><path d="m756 39.4c-16.1 0-27.5 4.77-33.8 14-6.35 9.26-9.26 25.1-9.26 47.3 0 22.2 3.17 37.8 9.52 47.4 6.35 9.51 17.5 13.8 33.6 13.8 27.5 0 41.5-14.6 41.5-44.2l-.26-4.47h-31.2v5.27c0 13.4-3.34 19.6-9.77 19.6-4.79 0-7.42-2.63-8.76-7.92-1.46-9.73-2.07-19.6-1.84-29.4-.38-9.83.23-19.7 1.84-29.4.4-4.47 4.27-7.84 8.76-7.65 3.2-.26 6.24 1.48 7.63 4.39 1.81 4.71 2.54 9.79 2.14 14.8v3.34h31.5v-2.14c0-15.3-3.34-26.7-10-33.8-6.68-7.12-17.2-10.9-31.5-10.9z"/><path d="m569 58.8v-16.1h-30.1v116h32.5v-55.8c0-10 .79-17.2 2.65-21.2 1.89-3.98 5.55-6.09 11.4-6.09 3.22.12 6.4.58 9.52 1.34v-37c-10.4 1.2-19.1 7.15-26 18.5z"/></g></svg>